{"title":"Battlestar.Galactica.Blood.and.Chrome.2012.BDrip.DivX.AC3-Atilla","uid":8128706,"size":1232617086,"categoryP":"video","categoryS":"movies","magnet":"?xt=urn:btih:f984812a0ea6ccbd54d09a4eb248cce34b90a36e&amp;dn=Battlestar.Galactica.Blood.and.Chrome.2012.BDrip.DivX.AC3-Atilla&amp;tr=udp%3A%2F%2Ftracker.openbittorrent.com%3A80&amp;tr=udp%3A%2F%2Fopen.demonii.com%3A1337&amp;tr=udp%3A%2F%2Ftracker.coppersurfer.tk%3A6969&amp;tr=udp%3A%2F%2Fexodus.desync.com%3A6969","seeders":1,"leechers":0,"uploader":"Atilla82","files":4,"time":1360543163,"description":"Battlestar Galactica: Blood &amp; Chrome (2012) Pilot\n\n\nbattlestar.galactica.blood.and.chrome.2012.bdrip.divx.ac3-atilla82\n\n\n\n\n\n &lt;a href=&quot;\nhttp://www.imdb.com/title/tt1704292/&quot; rel=&quot;nofollow&quot; target=&quot;_NEW&quot;&gt;\nhttp://www.imdb.com/title/tt1704292/&lt;/a&gt;\n\n\nThe adventures of young William Adama in the First Cylon War.\n\n\nsubtitles: English (.srt)\n\nsource: Battlestar.Galactica.Blood.and.Chrome.2012.1080p.BluRay.x264-GECKOS\n\n\n\nGeneral\nComplete name : battlestar.galactica.blood.and.chrome.2012.bdrip.divx.ac3-atilla82.avi\nFormat : AVI\nFormat/Info : Audio Video Interleave\nFile size : 1.15 GiB\nDuration : 1h 33mn\nOverall bit rate : 1 757 Kbps\nWriting application : VirtualDubMod 1.5.10.2 (build 2540/release)\nWriting library : VirtualDubMod build 2540/release\n\nVideo\nID : 0\nFormat : MPEG-4 Visual\nFormat settings, BVOP : 1\nFormat settings, QPel : No\nFormat settings, GMC : No warppoints\nFormat settings, Matrix : Default (H.263)\nMuxing mode : Packed bitstream\nCodec ID : DX50\nCodec ID/Hint : DivX 5\nDuration : 1h 33mn\nBit rate : 1 299 Kbps\nWidth : 720 pixels\nHeight : 406 pixels\nDisplay aspect ratio : 16:9\nFrame rate : 23.976 fps\nColor space : YUV\nChroma subsampling : 4:2:0\nBit depth : 8 bits\nScan type : Progressive\nCompression mode : Lossy\nBits/(Pixel*Frame) : 0.185\nStream size : 869 MiB (74%)\nWriting library : DivX 2682\n\nAudio\nID : 1\nFormat : AC-3\nFormat/Info : Audio Coding 3\nMode extension : CM (complete main)\nFormat settings, Endianness : Big\nCodec ID : 2000\nDuration : 1h 33mn\nBit rate mode : Constant\nBit rate : 448 Kbps\nChannel(s) : 6 channels\nChannel positions : Front: L C R, Side: L R, LFE\nSampling rate : 48.0 KHz\nBit depth : 16 bits\nCompression mode : Lossy\nStream size : 300 MiB (26%)\nAlignment : Split accross interleaves\nInterleave, duration : 42 ms (1.00 video frame)\nInterleave, preload duration : 500 ms\n\n\nSCREENS &lt;a href=&quot;\nhttp://www.pohrani.com/f/3p/CU/26CbnXCH/screenshots.jpg&quot; rel=&quot;nofollow&quot; target=&quot;_NEW&quot;&gt;\nhttp://www.pohrani.com/f/3p/CU/26CbnXCH/screenshots.jpg&lt;/a&gt;\n\n\n","torrent":{"xt":"urn:btih:f984812a0ea6ccbd54d09a4eb248cce34b90a36e","amp;dn":"Battlestar.Galactica.Blood.and.Chrome.2012.BDrip.DivX.AC3-Atilla","amp;tr":["udp%3A%2F%2Ftracker.openbittorrent.com%3A80","udp%3A%2F%2Fopen.demonii.com%3A1337","udp%3A%2F%2Ftracker.coppersurfer.tk%3A6969","udp%3A%2F%2Fexodus.desync.com%3A6969"],"infoHash":"f984812a0ea6ccbd54d09a4eb248cce34b90a36e","infoHashBuffer":{"type":"Buffer","data":[249,132,129,42,14,166,204,189,84,208,154,78,178,72,204,227,75,144,163,110]},"announce":[],"urlList":[]}}